<?xml version="1.0" encoding="utf-8"?>
<!-- Generator: Adobe Illustrator 29.4.0, SVG Export Plug-In . SVG Version: 9.03 Build 0)  -->
<svg version="1.1" id="Warstwa_1" xmlns="http://www.w3.org/2000/svg" xmlns:xlink="http://www.w3.org/1999/xlink" x="0px" y="0px"
	 viewBox="0 0 40.9 58.7" style="enable-background:new 0 0 40.9 58.7;" xml:space="preserve">
<style type="text/css">
	.Dodaj_x0020_cień{fill:none;}
	.Blask_x0020_zewnętrzny_x0020__x0028_5_x0020_pkt_x002E__x0029_{fill:none;}
	.Niebieski_x0020_neon{fill:none;stroke:#8AACDA;stroke-width:7;stroke-linecap:round;stroke-linejoin:round;}
	.Podświetlenie_x0020_Chrom{fill:url(#SVGID_1_);stroke:#FFFFFF;stroke-width:0.3629;stroke-miterlimit:1;}
	.Jive_GS{fill:#FFDD00;}
	.Alyssa_GS{fill:#A6D0E4;}
	.st0{fill:#1D1E1C;}
	.st1{fill:#24343D;}
	.st2{fill:#FFFFFF;}
</style>
<linearGradient id="SVGID_1_" gradientUnits="userSpaceOnUse" x1="-129.1572" y1="-120.5332" x2="-129.1572" y2="-121.5332">
	<stop  offset="0" style="stop-color:#656565"/>
	<stop  offset="0.618" style="stop-color:#1B1B1B"/>
	<stop  offset="0.6292" style="stop-color:#545454"/>
	<stop  offset="0.9831" style="stop-color:#3E3E3E"/>
</linearGradient>
<g>
	<path class="st0" d="M120.8,16.5l-6.7,50.4c-0.2,0.4-1,0.8-1.4,1c-4.7,2-20.1,2.2-24.6,0c-0.5-0.3-1.1-0.5-1.3-1.1l-6.6-50.2
		c0.9,0.6,2,1.2,3,1.6c8,3,25.5,3,33.6,0.4C118.3,18,119.4,17.2,120.8,16.5z"/>
	<path class="st1" d="M80.1,16.5c-0.9-1.8,1.3-2.8,2.7-3.4C90,10,112,9.8,118.9,13.4c1.3,0.7,2.1,1.4,1.9,3c-1.4,0.8-2.6,1.5-4.1,2
		c-8.1,2.6-25.6,2.7-33.6-0.4C82.1,17.7,81,17.1,80.1,16.5z"/>
</g>
<g>
	<path class="st2" d="M40.1,6.1c0,1.7-0.1,3.3-0.3,5.1c-1.5,13.1-3.2,26.9-5.2,40c-0.2,1.1-0.4,3.8-0.8,4.6
		c-0.2,0.3-0.9,0.7-1.3,0.8c-4.6,2-19.6,2.2-24,0c-0.5-0.3-1.1-0.5-1.3-1.1L0.7,6.1c1,0.5,1.9,1.2,2.9,1.6c7.5,3,27.9,3.1,35.1-0.6
		C39.2,6.9,39.6,6.4,40.1,6.1z"/>
	<path class="st0" d="M40.1,6.1l-0.5,0c0,1.7-0.1,3.3-0.3,5c-1.5,13.1-3.2,26.9-5.2,40c-0.1,0.6-0.2,1.5-0.3,2.4
		c-0.1,0.5-0.1,0.9-0.2,1.3c-0.1,0.4-0.2,0.7-0.2,0.8l0,0c0,0-0.2,0.2-0.4,0.3c-0.2,0.1-0.5,0.2-0.6,0.3c-1.1,0.5-2.9,0.9-5.1,1.1
		c-2.2,0.3-4.6,0.4-7.1,0.4c-2.4,0-4.7-0.1-6.7-0.4c-2-0.3-3.7-0.7-4.7-1.2C8.4,56,8.1,55.9,8,55.7c-0.2-0.1-0.3-0.2-0.3-0.4
		l-0.5,0.2l0.5-0.1L1.2,6.1L0.7,6.1L0.5,6.6C1.4,7,2.3,7.7,3.4,8.2c3.8,1.5,10.5,2.2,17.3,2.3c3.6,0,7.2-0.2,10.4-0.7
		c3.2-0.5,5.9-1.2,7.9-2.2c0.6-0.3,1-0.8,1.5-1.1L40.1,6.1l-0.5,0L40.1,6.1l-0.3-0.4c-0.6,0.4-1,0.8-1.4,1c-1.8,0.9-4.4,1.6-7.6,2.1
		c-3.1,0.5-6.7,0.7-10.2,0.7C14,9.4,7.3,8.7,3.8,7.3c-1-0.4-1.8-1-2.9-1.6L0.1,5.3l6.6,50.4l0,0c0.1,0.4,0.4,0.7,0.7,0.9
		C7.7,56.8,8,56.9,8.2,57c1.2,0.6,2.9,1,5,1.3c2.1,0.3,4.5,0.4,6.9,0.4c2.5,0,5-0.1,7.2-0.4c2.2-0.3,4.1-0.7,5.4-1.2
		c0.2-0.1,0.5-0.2,0.8-0.4c0.1-0.1,0.3-0.2,0.4-0.3c0.1-0.1,0.3-0.2,0.4-0.4c0.1-0.3,0.2-0.6,0.3-1c0.3-1.2,0.4-3,0.6-3.8
		c2-13.1,3.7-26.8,5.2-40c0.2-1.7,0.3-3.4,0.3-5.1l0-0.9l-0.8,0.5L40.1,6.1z"/>
	<path class="st2" d="M0.7,6.1C-0.2,4.4,2,3.3,3.3,2.8c7-3,28.5-3.2,35.3,0.4c0.9,0.5,1.8,1.1,1.8,2.3c0,0.4-0.3,0.7-0.3,0.7
		c-0.5,0.3-0.9,0.8-1.4,1c-7.2,3.7-27.6,3.5-35.1,0.6C2.6,7.3,1.7,6.6,0.7,6.1z"/>
	<path class="st0" d="M0.7,6.1l0.4-0.2C1,5.7,1,5.5,1,5.3c0-0.2,0.1-0.4,0.2-0.6c0.2-0.3,0.6-0.6,1-0.9c0.4-0.3,0.9-0.5,1.3-0.6
		c1.7-0.7,4.2-1.3,7.3-1.7c3-0.4,6.5-0.6,10-0.6c3.6,0,7.2,0.2,10.3,0.6c3.1,0.4,5.7,1.1,7.3,2c0.4,0.2,0.9,0.5,1.1,0.8
		c0.3,0.3,0.4,0.6,0.4,1l0,0l0,0l-0.1,0.2l-0.1,0.1l0,0.1l0,0.1c0,0-0.1,0.1-0.1,0.2l0.5,0l-0.3-0.4c-0.6,0.4-1,0.8-1.4,1
		c-1.8,0.9-4.4,1.6-7.6,2.1c-3.1,0.5-6.7,0.7-10.2,0.7C14,9.4,7.3,8.7,3.8,7.3c-1-0.4-1.8-1-2.9-1.6L0.7,6.1l0.4-0.2L0.7,6.1
		L0.5,6.6C1.4,7,2.3,7.7,3.4,8.2c3.8,1.5,10.5,2.2,17.3,2.3c3.6,0,7.2-0.2,10.4-0.7c3.2-0.5,5.9-1.2,7.9-2.2c0.6-0.3,1-0.8,1.5-1.1
		l0.2-0.1l0-0.3l-0.5,0l0.4,0.2c0,0,0-0.1,0.1-0.2l-0.5,0l0.4,0.2l-0.3-0.2l0.3,0.2l0,0l-0.3-0.2l0.3,0.2l-0.1,0l0.1,0l0,0l-0.1,0
		l0.1,0c0,0,0.1-0.1,0.2-0.3c0.1-0.2,0.2-0.4,0.2-0.7l0,0l0,0c0-0.7-0.3-1.3-0.7-1.7c-0.4-0.4-0.9-0.7-1.4-1
		c-1.8-0.9-4.5-1.6-7.7-2.1C28,0.2,24.4,0,20.8,0c-3.5,0-7,0.2-10.1,0.6C7.6,1,4.9,1.5,3.1,2.3c-0.6,0.2-1.3,0.6-1.9,1
		C0.9,3.6,0.6,3.8,0.4,4.2C0.2,4.5,0,4.9,0,5.3c0,0.3,0.1,0.7,0.3,1l0.1,0.1l0.1,0.1L0.7,6.1z"/>
</g>
</svg>
