<?xml version="1.0" encoding="utf-8"?>
<!-- Generator: Adobe Illustrator 29.4.0, SVG Export Plug-In . SVG Version: 9.03 Build 0)  -->
<svg version="1.1" id="Warstwa_1" xmlns="http://www.w3.org/2000/svg" xmlns:xlink="http://www.w3.org/1999/xlink" x="0px" y="0px"
	 viewBox="0 0 40.4 58.9" style="enable-background:new 0 0 40.4 58.9;" xml:space="preserve">
<style type="text/css">
	.st0{fill:#FFFFFF;}
	.st1{fill:#1D1E1C;}
</style>
<g>
	<path class="st0" d="M33.5,4l6.5,49.9c-0.2,0.7-1.3,1.4-2,1.8c-6.6,3.5-29,3.5-35.6,0c-2-1.1-1.9-1.5-1.8-3.7L6.8,4
		C7.2,4.2,7.6,4.5,8,4.7c5.4,2.3,19,2.4,24.3,0C32.7,4.5,33.1,4.2,33.5,4z"/>
	<path class="st1" d="M33.5,4L33,4L39.5,54l0.5-0.1l-0.5-0.1c0,0.2-0.3,0.5-0.6,0.8c-0.4,0.3-0.8,0.5-1.1,0.7
		c-1.5,0.8-4.1,1.5-7.2,1.9c-3.1,0.4-6.7,0.7-10.3,0.7c-3.6,0-7.2-0.2-10.4-0.7c-3.1-0.4-5.7-1.1-7.3-1.9c-0.8-0.4-1.2-0.7-1.3-0.9
		C1.1,54.2,1.1,54,1,53.9C1,53.7,1,53.5,1,53.2c0-0.3,0-0.7,0-1.2l-0.5,0L1,52L7.3,4L6.8,4L6.6,4.4c0.3,0.2,0.7,0.5,1.2,0.8
		C10.6,6.4,15.4,7,20.3,7c4.7,0,9.5-0.6,12.3-1.8c0.5-0.2,0.9-0.5,1.2-0.8L33.5,4L33,4L33.5,4l-0.3-0.4c-0.4,0.3-0.7,0.5-1.1,0.7
		C29.6,5.4,24.9,6,20.3,6c-4.7,0-9.5-0.6-12.1-1.7C7.8,4.1,7.5,3.8,7.1,3.6L6.5,3.2L0.1,51.9l0,0c0,0.5,0,0.9,0,1.2
		c0,0.3,0,0.6,0.1,0.9c0.1,0.4,0.3,0.8,0.7,1.1c0.3,0.3,0.8,0.6,1.4,0.9c1.8,0.9,4.4,1.6,7.6,2c3.2,0.4,6.8,0.7,10.5,0.7
		c3.6,0,7.3-0.2,10.4-0.7c3.2-0.4,5.8-1.1,7.6-2c0.3-0.2,0.8-0.5,1.2-0.8c0.4-0.3,0.8-0.7,1-1.3l0-0.1L33.8,3.1l-0.6,0.4L33.5,4z"/>
	<path class="st0" d="M33.5,4c-0.4,0.2-0.7,0.5-1.1,0.7C26.9,7.1,13.4,7.1,8,4.7C7.6,4.5,7.2,4.2,6.8,4c-0.2-1.5,2.5-2.2,3.7-2.5
		c5-1.2,14.2-1.2,19.2,0C31,1.8,33.6,2.4,33.5,4z"/>
	<path class="st1" d="M33.5,4l-0.3-0.4c-0.4,0.3-0.7,0.5-1.1,0.7C29.6,5.4,24.9,6,20.3,6c-4.7,0-9.5-0.6-12.1-1.7
		C7.8,4.1,7.5,3.8,7.1,3.6L6.8,4l0.5-0.1l0-0.1c0-0.2,0.1-0.4,0.3-0.6C7.9,2.9,8.4,2.7,9,2.5c0.6-0.2,1.2-0.4,1.7-0.5
		c2.4-0.6,6-0.9,9.5-0.9c3.5,0,7.1,0.3,9.5,0.9c0.6,0.1,1.5,0.4,2.2,0.7c0.4,0.2,0.7,0.4,0.9,0.6C32.9,3.5,33,3.6,33,3.8l0,0.1
		L33.5,4l-0.3-0.4L33.5,4L33.9,4l0-0.2c0-0.5-0.2-1-0.6-1.3c-0.5-0.5-1.1-0.8-1.8-1C31,1.3,30.3,1.1,29.9,1
		c-2.5-0.6-6.1-0.9-9.7-0.9c-3.6,0-7.2,0.3-9.7,0.9C9.8,1.2,8.9,1.4,8,1.8C7.6,2,7.2,2.2,6.9,2.6C6.6,2.9,6.3,3.3,6.3,3.8l0,0.2
		l0,0.2l0.2,0.1c0.3,0.2,0.7,0.5,1.2,0.8C10.6,6.4,15.4,7,20.3,7c4.7,0,9.5-0.6,12.3-1.8c0.5-0.2,0.9-0.5,1.2-0.8l0.2-0.1l0-0.2
		L33.5,4z"/>
</g>
</svg>
