<?xml version="1.0" encoding="utf-8"?>
<!-- Generator: Adobe Illustrator 29.4.0, SVG Export Plug-In . SVG Version: 9.03 Build 0)  -->
<svg version="1.1" id="Warstwa_1" xmlns="http://www.w3.org/2000/svg" xmlns:xlink="http://www.w3.org/1999/xlink" x="0px" y="0px"
	 viewBox="0 0 40.4 58.7" style="enable-background:new 0 0 40.4 58.7;" xml:space="preserve">
<style type="text/css">
	.Dodaj_x0020_cień{fill:none;}
	.Blask_x0020_zewnętrzny_x0020__x0028_5_x0020_pkt_x002E__x0029_{fill:none;}
	.Niebieski_x0020_neon{fill:none;stroke:#8AACDA;stroke-width:7;stroke-linecap:round;stroke-linejoin:round;}
	.Podświetlenie_x0020_Chrom{fill:url(#SVGID_1_);stroke:#FFFFFF;stroke-width:0.3629;stroke-miterlimit:1;}
	.Jive_GS{fill:#FFDD00;}
	.Alyssa_GS{fill:#A6D0E4;}
	.st0{fill:#E7412D;}
	.st1{fill:#B8252B;}
</style>
<linearGradient id="SVGID_1_" gradientUnits="userSpaceOnUse" x1="-129.4268" y1="-120.5326" x2="-129.4268" y2="-121.5326">
	<stop  offset="0" style="stop-color:#656565"/>
	<stop  offset="0.618" style="stop-color:#1B1B1B"/>
	<stop  offset="0.6292" style="stop-color:#545454"/>
	<stop  offset="0.9831" style="stop-color:#3E3E3E"/>
</linearGradient>
<g>
	<path class="st0" d="M40.1,5.7c0,1.8-0.1,3.4-0.3,5.1c-1.5,13.4-3.3,27.4-5.3,40.7c-0.2,1.1-0.4,3.9-0.8,4.7
		c-0.2,0.4-0.9,0.7-1.3,0.8c-4.7,2-19.8,2.3-24.3,0c-0.5-0.3-1.1-0.5-1.3-1.1L0.2,5.7c1,0.5,1.9,1.2,2.9,1.6
		c7.6,3,28.3,3.2,35.5-0.6C39.2,6.5,39.6,6,40.1,5.7z"/>
	<path class="st1" d="M0.2,5.7c-0.9-1.8,1.3-2.8,2.6-3.4C10-0.7,31.7-0.9,38.5,2.7c0.9,0.5,1.8,1.1,1.9,2.3c0,0.4-0.3,0.7-0.3,0.7
		c-0.5,0.3-0.9,0.8-1.5,1.1c-7.2,3.8-27.9,3.6-35.5,0.6C2.1,6.9,1.2,6.2,0.2,5.7z"/>
</g>
</svg>
