<?xml version="1.0" encoding="utf-8"?>
<!-- Generator: Adobe Illustrator 29.4.0, SVG Export Plug-In . SVG Version: 9.03 Build 0)  -->
<svg version="1.1" id="Warstwa_1" xmlns="http://www.w3.org/2000/svg" xmlns:xlink="http://www.w3.org/1999/xlink" x="0px" y="0px"
	 viewBox="0 0 40.9 58.7" style="enable-background:new 0 0 40.9 58.7;" xml:space="preserve">
<style type="text/css">
	.Dodaj_x0020_cień{fill:none;}
	.Blask_x0020_zewnętrzny_x0020__x0028_5_x0020_pkt_x002E__x0029_{fill:none;}
	.Niebieski_x0020_neon{fill:none;stroke:#8AACDA;stroke-width:7;stroke-linecap:round;stroke-linejoin:round;}
	.Podświetlenie_x0020_Chrom{fill:url(#SVGID_1_);stroke:#FFFFFF;stroke-width:0.3629;stroke-miterlimit:1;}
	.Jive_GS{fill:#FFDD00;}
	.Alyssa_GS{fill:#A6D0E4;}
	.st0{fill:#E04F95;}
	.st1{fill:#B64580;}
</style>
<linearGradient id="SVGID_1_" gradientUnits="userSpaceOnUse" x1="-129.1572" y1="-120.5332" x2="-129.1572" y2="-121.5332">
	<stop  offset="0" style="stop-color:#656565"/>
	<stop  offset="0.618" style="stop-color:#1B1B1B"/>
	<stop  offset="0.6292" style="stop-color:#545454"/>
	<stop  offset="0.9831" style="stop-color:#3E3E3E"/>
</linearGradient>
<g>
	<path class="st0" d="M40.9,5.7l-6.7,50.4c-0.2,0.4-1,0.8-1.4,1c-4.7,2-20.1,2.2-24.6,0c-0.5-0.3-1.1-0.5-1.3-1.1L0.2,5.7
		c0.9,0.6,2,1.2,3,1.6c8,3,25.5,3,33.6,0.4C38.3,7.2,39.5,6.5,40.9,5.7z"/>
	<path class="st1" d="M0.2,5.7c-0.9-1.8,1.3-2.8,2.7-3.4C10.1-0.7,32.1-0.9,39,2.7c1.3,0.7,2.1,1.4,1.9,3c-1.4,0.8-2.6,1.5-4.1,2
		c-8.1,2.6-25.6,2.7-33.6-0.4C2.2,7,1.1,6.3,0.2,5.7z"/>
</g>
</svg>
