<?xml version="1.0" encoding="utf-8"?>
<!-- Generator: Adobe Illustrator 29.4.0, SVG Export Plug-In . SVG Version: 9.03 Build 0)  -->
<svg version="1.1" id="Warstwa_1" xmlns="http://www.w3.org/2000/svg" xmlns:xlink="http://www.w3.org/1999/xlink" x="0px" y="0px"
	 viewBox="0 0 40.4 58.9" style="enable-background:new 0 0 40.4 58.9;" xml:space="preserve">
<style type="text/css">
	.st0{fill:#8CBF43;}
	.st1{fill:#729B38;}
</style>
<g>
	<path class="st0" d="M33.8,3.6l6.6,50.8c-0.2,0.7-1.4,1.5-2,1.8c-6.8,3.6-29.7,3.6-36.5,0c-2-1.1-2-1.5-1.9-3.8L6.5,3.6
		c0.4,0.2,0.7,0.5,1.2,0.7c5.6,2.4,19.4,2.4,24.9,0C33,4.1,33.4,3.8,33.8,3.6z"/>
	<path class="st1" d="M33.8,3.6c-0.4,0.2-0.8,0.5-1.2,0.7c-5.5,2.4-19.4,2.4-24.9,0C7.2,4.1,6.9,3.8,6.5,3.6C6.3,2,9,1.4,10.3,1
		C15.4-0.3,24.9-0.3,30,1C31.2,1.4,34,2,33.8,3.6z"/>
</g>
</svg>
